<?xml version="1.0" encoding="UTF-8"?>
<svg id="_Слой_2" data-name="Слой 2" xmlns="http://www.w3.org/2000/svg" viewBox="0 0 141.36 287.14">
  <defs>
    <style>
      .cls-1 {
        fill: #fff;
        stroke-width: 0px;
      }
    </style>
  </defs>
  <g id="MainShipPart">
    <path class="cls-1" d="m71.57,287.14h0c-10.57-6.26-23.89-15.53-37.33-28.89-13.86-13.77-23.4-27.46-29.78-38.22C2.98,172.77,1.49,125.51.01,78.25c-.15-10.91.87-27.7,7.56-46.67C9.45,26.23,18.54.44,25.35,1.36c4.4.59,9.2,12.54,9.78,66.22.84,8.49,1.84,15.61,2.67,20.89.79,5.01,1.23,7.18,8,38.22.83,3.82,2.23,10.14,4.89,18.22,3.85,11.7,6.53,15.46,10.22,17.78,3.52,2.21,7.23,2.64,9.78,2.67,3.21.79,8.81,1.62,13.33-1.33,3.56-2.32,4.8-5.91,8-16.44,3.59-11.79,5.38-17.69,5.78-19.56,3.22-15.16,1.37-18.75,4.44-38.22,1.47-9.3,1.78-7.76,3.11-16.44,2.33-15.17,1.75-22.29,2.67-34.67C109.21,22.61,110.81.92,116.46.03c6.12-.96,15.49,22.75,20,40.44,4.84,18.99,4.96,34.25,4.89,38.22-.89,47.11-1.78,94.22-2.67,141.33-4.47,10.05-12.97,25.77-28.44,40.89-14.32,13.98-28.92,21.89-38.67,26.22Z"/>
  </g>
</svg>