<?xml version="1.0" encoding="UTF-8"?>
<svg id="_Слой_2" data-name="Слой 2" xmlns="http://www.w3.org/2000/svg" viewBox="0 0 131.11 287.14">
  <defs>
    <style>
      .cls-1 {
        fill: #333;
        stroke-width: 0px;
      }
    </style>
  </defs>
  <g id="Shade">
    <path class="cls-1" d="m66.38,287.14h0c-9.8-6.26-22.16-15.53-34.63-28.89-12.85-13.77-21.7-27.46-27.62-38.22C2.76,172.77,1.39,125.51.01,78.25c-.14-10.91.81-27.7,7.01-46.67C8.77,26.23,17.19.44,23.51,1.36c4.08.59,8.53,12.54,9.07,66.22.78,8.49,1.7,15.61,2.47,20.89.73,5.01,1.14,7.18,7.42,38.22.77,3.82,2.07,10.14,4.53,18.22,3.57,11.7,6.06,15.46,9.48,17.78,3.26,2.21,6.71,2.64,9.07,2.67,2.97.79,8.17,1.62,12.37-1.33,3.3-2.32,4.45-5.91,7.42-16.44,3.33-11.79,4.99-17.69,5.36-19.56,2.99-15.16,1.27-18.75,4.12-38.22,1.36-9.3,1.65-7.76,2.89-16.44,2.16-15.17,1.62-22.29,2.47-34.67C101.29,22.61,102.78.92,108.02.03c5.67-.96,14.37,22.75,18.55,40.44,4.49,18.99,4.6,34.25,4.53,38.22-.82,47.11-1.65,94.22-2.47,141.33-4.15,10.05-12.03,25.77-26.38,40.89-13.28,13.98-26.83,21.89-35.86,26.22Z"/>
  </g>
</svg>