<?xml version="1.0" encoding="UTF-8"?>
<svg id="_Слой_2" data-name="Слой 2" xmlns="http://www.w3.org/2000/svg" viewBox="0 0 307.95 271.84">
  <defs>
    <style>
      .cls-1 {
        fill: #fff;
        stroke-width: 0px;
      }
    </style>
  </defs>
  <g id="MainShipPart">
    <g>
      <polygon class="cls-1" points="117.82 0 0 40.41 0 82.86 117.82 65.31 117.82 0"/>
      <polygon class="cls-1" points="190.13 0 307.95 40.41 307.95 82.86 190.13 65.31 190.13 0"/>
      <g>
        <polyline class="cls-1" points="191.96 125.51 212.73 98.64 233.51 71.78 212.73 68.68 191.96 65.59"/>
        <polyline class="cls-1" points="153.94 198.67 175.22 195.74 196.49 192.81 202.35 136.26 204.61 114.35 212.73 35.89 183.34 34.34 153.94 32.79 153.94 100.75"/>
        <polygon class="cls-1" points="191.96 271.84 153.94 271.84 115.92 271.84 115.92 135.92 115.92 0 153.94 0 191.96 0 191.96 135.92 191.96 271.84"/>
        <polyline class="cls-1" points="153.94 198.67 132.65 195.73 111.38 192.8 110.72 186.48 105.53 136.31 103.26 114.35 95.14 35.89 124.54 34.34 139.24 33.57 153.94 32.79 153.94 100.75"/>
        <polyline class="cls-1" points="115.92 125.51 105.53 112.08 95.14 98.64 74.37 71.78 95.14 68.68 105.53 67.14 115.92 65.59"/>
      </g>
      <polygon class="cls-1" points="115.92 271.84 101.63 225.1 112.55 192.86 115.92 192.86 115.92 271.84"/>
      <polygon class="cls-1" points="191.96 271.84 206.94 225.1 195.49 192.86 191.96 192.86 191.96 271.84"/>
      <polygon class="cls-1" points="104.9 115.73 74.29 138.57 72.24 167.96 113.88 192.86 104.9 115.73"/>
      <polygon class="cls-1" points="202.65 115.73 233.27 138.57 235.31 167.96 193.67 192.86 202.65 115.73"/>
    </g>
  </g>
</svg>