<?xml version="1.0" encoding="UTF-8"?>
<svg id="_Слой_2" data-name="Слой 2" xmlns="http://www.w3.org/2000/svg" viewBox="0 0 159.91 193.86">
  <defs>
    <style>
      .cls-1 {
        fill: none;
        stroke: #fff;
        stroke-miterlimit: 10;
      }
    </style>
  </defs>
  <g id="ShipLine">
    <g>
      <g>
        <line class="cls-1" x1="19.09" y1="96.45" x2="79.97" y2="136.42"/>
        <line class="cls-1" x1="41.95" y1="126.01" x2="19.09" y2="96.45"/>
        <line class="cls-1" x1="38.58" y1="193.36" x2="41.95" y2="193.36"/>
        <line class="cls-1" x1="41.95" y1=".5" x2="41.95" y2="193.36"/>
        <line class="cls-1" x1="30.93" y1="116.23" x2="41.8" y2="193.14"/>
        <line class="cls-1" x1="30.93" y1="116.23" x2="29.56" y2="117.25"/>
        <line class="cls-1" x1="29.56" y1="117.25" x2="28.76" y2="108.95"/>
        <line class="cls-1" x1="41.95" y1="66.09" x2=".4" y2="72.28"/>
        <line class="cls-1" x1=".4" y1="72.28" x2="19.09" y2="96.45"/>
        <line class="cls-1" x1="41.95" y1=".5" x2="79.97" y2=".5"/>
        <line class="cls-1" x1="41.95" y1="66.09" x2="43.84" y2="65.81"/>
        <line class="cls-1" x1="45.58" y1=".5" x2="43.84" y2="65.81"/>
        <line class="cls-1" x1="41.95" y1="111.46" x2="79.97" y2=".5"/>
        <line class="cls-1" x1="74.34" y1="16.93" x2="44.75" y2="31.66"/>
        <line class="cls-1" x1="43.84" y1="65.81" x2="54.4" y2="75.12"/>
        <line class="cls-1" x1="79.97" y1="136.42" x2="41.95" y2="193.36"/>
      </g>
      <g>
        <line class="cls-1" x1="140.82" y1="96.45" x2="79.94" y2="136.42"/>
        <line class="cls-1" x1="117.96" y1="126.01" x2="140.82" y2="96.45"/>
        <line class="cls-1" x1="121.33" y1="193.36" x2="117.96" y2="193.36"/>
        <line class="cls-1" x1="117.96" y1=".5" x2="117.96" y2="193.36"/>
        <line class="cls-1" x1="128.98" y1="116.23" x2="118.11" y2="193.14"/>
        <line class="cls-1" x1="128.98" y1="116.23" x2="130.35" y2="117.25"/>
        <line class="cls-1" x1="130.35" y1="117.25" x2="131.15" y2="108.95"/>
        <line class="cls-1" x1="117.96" y1="66.09" x2="159.51" y2="72.28"/>
        <line class="cls-1" x1="159.51" y1="72.28" x2="140.82" y2="96.45"/>
        <line class="cls-1" x1="117.96" y1=".5" x2="79.94" y2=".5"/>
        <line class="cls-1" x1="117.96" y1="66.09" x2="116.06" y2="65.81"/>
        <line class="cls-1" x1="114.32" y1=".5" x2="116.06" y2="65.81"/>
        <line class="cls-1" x1="117.96" y1="111.46" x2="79.94" y2=".5"/>
        <line class="cls-1" x1="85.57" y1="16.93" x2="115.15" y2="31.66"/>
        <line class="cls-1" x1="116.06" y1="65.81" x2="105.51" y2="75.12"/>
        <line class="cls-1" x1="79.94" y1="136.42" x2="117.96" y2="193.36"/>
      </g>
    </g>
  </g>
</svg>